<?xml version="1.0" encoding="UTF-8" standalone="no"?>
<!-- Created with Inkscape (http://www.inkscape.org/) -->

<svg
   width="48"
   height="48"
   viewBox="0 0 12.7 12.7"
   version="1.1"
   id="svg1"
   inkscape:version="1.3.2 (091e20e, 2023-11-25, custom)"
   sodipodi:docname="algee_avatar_48_48.svg"
   xmlns:inkscape="http://www.inkscape.org/namespaces/inkscape"
   xmlns:sodipodi="http://sodipodi.sourceforge.net/DTD/sodipodi-0.dtd"
   xmlns="http://www.w3.org/2000/svg"
   xmlns:svg="http://www.w3.org/2000/svg"
   xmlns:rdf="http://www.w3.org/1999/02/22-rdf-syntax-ns#"
   xmlns:cc="http://creativecommons.org/ns#">
  <sodipodi:namedview
     id="namedview1"
     pagecolor="#000000"
     bordercolor="#ffffff"
     borderopacity="1"
     inkscape:showpageshadow="false"
     inkscape:pageopacity="0.0"
     inkscape:pagecheckerboard="true"
     inkscape:deskcolor="#000000"
     inkscape:document-units="px"
     guidecolor="#000000"
     guideopacity="0.65882353"
     guidehicolor="#000000"
     guidehiopacity="0.49803922"
     inkscape:clip-to-page="false"
     inkscape:zoom="8"
     inkscape:cx="29.75"
     inkscape:cy="37.4375"
     inkscape:window-width="1920"
     inkscape:window-height="1009"
     inkscape:window-x="1912"
     inkscape:window-y="-8"
     inkscape:window-maximized="1"
     inkscape:current-layer="layer1" />
  <defs
     id="defs1">
    <inkscape:path-effect
       effect="spiro"
       id="path-effect58"
       is_visible="true"
       lpeversion="1" />
    <inkscape:perspective
       sodipodi:type="inkscape:persp3d"
       inkscape:vp_x="-1.8404998 : 9.2560523 : 1"
       inkscape:vp_y="0 : 1000 : 0"
       inkscape:vp_z="10.8595 : 9.2560523 : 1"
       inkscape:persp3d-origin="4.5095002 : 7.1393856 : 1"
       id="perspective23" />
    <inkscape:perspective
       sodipodi:type="inkscape:persp3d"
       inkscape:vp_x="-1.6299018 : 20.362194 : 1"
       inkscape:vp_y="0 : 696.38804 : 0"
       inkscape:vp_z="23.999553 : 19.867503 : 1"
       inkscape:persp3d-origin="5.3000206 : 18.888174 : 1"
       id="perspective1" />
  </defs>
  <g
     inkscape:label="Layer 1"
     inkscape:groupmode="layer"
     id="layer1">
    <circle
       style="fill:#6767b3;fill-opacity:1;stroke-width:0.265274"
       id="path157"
       cx="6.3499999"
       cy="6.3499999"
       r="6.3499999" />
    <g
       id="robot"
       style="fill:#7e7e7e;fill-opacity:1"
       transform="matrix(1.5115891,0,0,1.4135862,-4.3931146,-2.9992548)">
      <g
         id="g40"
         inkscape:label="left_arm"
         transform="translate(-0.61349994)">
        <g
           id="g44"
           style="fill:#7e7e7e;fill-opacity:1"
           inkscape:label="upper">
          <rect
             style="fill:#b3b3b3;fill-opacity:1;stroke-width:0.264583"
             id="rect44"
             width="2.195684"
             height="1.0332631"
             x="6.8130784"
             y="7.7171836"
             ry="0.51663154"
             inkscape:label="upper_recess_bottom" />
          <rect
             style="fill:#000000;fill-opacity:1;stroke-width:0.264918"
             id="rect43"
             width="2.1653602"
             height="1.0503871"
             x="6.2821732"
             y="7.708622"
             ry="0.52519357"
             inkscape:label="upper_recess" />
          <rect
             style="fill:#b3b3b3;fill-opacity:1;stroke-width:0.264583"
             id="rect39"
             width="2.195684"
             height="1.0332631"
             x="6.042944"
             y="7.7162881"
             ry="0.51663154"
             inkscape:label="upper_recess_top" />
        </g>
        <circle
           style="fill:#000000;fill-opacity:1;stroke-width:0.128511"
           id="circle46"
           cy="8.2338152"
           cx="8.8634586"
           r="0.27446043"
           inkscape:label="elbow" />
        <rect
           style="fill:#999999;fill-opacity:1;stroke-width:0.12983"
           id="rect40"
           width="1.4075017"
           height="0.38811311"
           x="4.9630351"
           y="10.761529"
           ry="0.19405656"
           inkscape:label="lower"
           transform="matrix(0.92636999,-0.37661471,0.38881604,0.92131541,0,0)" />
        <g
           id="g46"
           inkscape:label="hand"
           style="fill:#7e7e7e;fill-opacity:1">
          <g
             id="g157"
             style="fill:#7e7e7e;fill-opacity:1"
             inkscape:label="back">
            <g
               id="g154"
               inkscape:label="algae_back"
               transform="matrix(-0.12908272,0.0171867,-0.01111308,-0.16756773,9.58222,10.085177)"
               style="fill:#7e7e7e;fill-opacity:1">
              <g
                 id="g143"
                 inkscape:label="leaf"
                 transform="rotate(23.538983,-12.401524,15.181772)">
                <ellipse
                   style="fill:#008000;fill-opacity:1;stroke-width:0.264583"
                   id="ellipse139"
                   cx="-0.74952173"
                   cy="17.853012"
                   rx="1.0046126"
                   ry="1.8265682"
                   transform="rotate(39.046188)" />
                <ellipse
                   style="fill:#008000;fill-opacity:1;stroke-width:0.265818"
                   id="ellipse140"
                   cx="-6.0134058"
                   cy="13.195962"
                   rx="0.43940297"
                   ry="1.4046568"
                   transform="matrix(0.86775975,0.49698394,-0.37451567,0.9272206,0,0)" />
                <ellipse
                   style="fill:#008000;fill-opacity:1;stroke-width:0.210011"
                   id="ellipse141"
                   cx="-11.518922"
                   cy="3.8223138"
                   rx="0.47449502"
                   ry="0.24970776"
                   transform="matrix(0.92518084,-0.37952659,0.33008178,0.94395234,0,0)" />
                <ellipse
                   style="fill:#008000;fill-opacity:1;stroke-width:0.229379"
                   id="ellipse142"
                   cx="-10.457104"
                   cy="10.548431"
                   rx="0.7306273"
                   ry="1.3470939" />
                <ellipse
                   style="fill:#008000;fill-opacity:1;stroke-width:0.264583"
                   id="ellipse143"
                   cx="-6.8785691"
                   cy="14.447186"
                   rx="0.83337176"
                   ry="1.3242619"
                   transform="rotate(16.47567)" />
                <path
                   style="fill:#000000;fill-opacity:1;stroke-width:0.264583"
                   id="path143"
                   d="m -12.453779,14.294635 c 0.217773,-0.09158 0.396827,-0.248535 0.563539,-0.412055 0.17999,-0.182083 0.345202,-0.377214 0.50183,-0.579463 0.121007,-0.148248 0.212605,-0.315964 0.29898,-0.485783 0.04803,-0.104552 0.09362,-0.210174 0.139531,-0.315659 0.04736,-0.113283 0.08448,-0.230773 0.117997,-0.348809 0.03842,-0.138035 0.07629,-0.276142 0.111078,-0.415133 0.02954,-0.123187 0.05727,-0.246776 0.08722,-0.369877 0.04705,-0.204859 0.102865,-0.407584 0.155636,-0.611019 0.05368,-0.213997 0.119097,-0.424802 0.17346,-0.638589 0.04723,-0.1739288 0.07532,-0.3518817 0.104952,-0.5293531 0.02426,-0.1072105 0.0439,-0.2154857 0.06859,-0.3225752 0.01787,-0.073648 0.03291,-0.1480921 0.0569,-0.2200368 0.04766,-0.1218316 0.085174,-0.2479074 0.1369127,-0.3680867 0.03347,-0.073077 0.067986,-0.1471441 0.1128736,-0.2140699 0.032287,-0.047484 0.069662,-0.091386 0.1044787,-0.1371055 0.035595,-0.044811 0.066238,-0.093307 0.1056981,-0.1349571 0.028351,-0.032853 0.061346,-0.063284 0.098215,-0.086327 0.043898,-0.027331 0.08741,-0.055114 0.1302356,-0.084108 0.03582,-0.013438 0.059842,-0.051232 0.09523,-0.063943 0.0042,-0.00127 0.0084,-0.00251 0.012605,-0.00378 0.088337,-0.030774 0.044816,-0.1557022 -0.043522,-0.1249277 v 0 c -0.00955,0.00353 -0.019098,0.00706 -0.028645,0.010586 -0.038812,0.021201 -0.071523,0.050456 -0.1098928,0.072561 -0.042408,0.028781 -0.085584,0.056175 -0.1290558,0.083317 -0.044655,0.030477 -0.087306,0.065011 -0.1221452,0.1066416 -0.041625,0.04547 -0.076672,0.095842 -0.1139716,0.1447911 -0.036719,0.048219 -0.076143,0.094511 -0.1099286,0.1448189 -0.047837,0.074339 -0.088319,0.1535764 -0.1238157,0.2344984 -0.05268,0.1239512 -0.09246,0.2531515 -0.140945,0.3787735 -0.0247,0.076003 -0.04191,0.153997 -0.06017,0.2317639 -0.02508,0.1097291 -0.04566,0.2205069 -0.07013,0.3303923 -0.029,0.1738458 -0.05638,0.3481899 -0.102684,0.5185563 -0.05421,0.213596 -0.119808,0.424128 -0.173294,0.637944 -0.05294,0.204083 -0.108915,0.407456 -0.156125,0.612964 -0.02988,0.12282 -0.05755,0.246124 -0.08701,0.369028 -0.03446,0.137677 -0.07197,0.274475 -0.110031,0.411206 -0.03174,0.112379 -0.06719,0.224176 -0.112017,0.332077 -0.04484,0.103068 -0.08948,0.206215 -0.136149,0.30848 -0.08257,0.162432 -0.169733,0.323076 -0.285654,0.464747 -0.152962,0.197552 -0.31424,0.38819 -0.489965,0.566111 -0.154323,0.152012 -0.319888,0.298803 -0.521687,0.384287 -0.08635,0.03598 -0.03547,0.158094 0.05088,0.122116 z" />
              </g>
              <g
                 id="g148"
                 inkscape:label="leaf"
                 transform="matrix(-0.60950506,0.06353672,0.13423277,0.84155486,-21.641775,2.8220249)">
                <ellipse
                   style="fill:#008000;fill-opacity:1;stroke-width:0.264583"
                   id="ellipse144"
                   cx="-0.74952173"
                   cy="17.853012"
                   rx="1.0046126"
                   ry="1.8265682"
                   transform="rotate(39.046188)" />
                <ellipse
                   style="fill:#008000;fill-opacity:1;stroke-width:0.265818"
                   id="ellipse145"
                   cx="-6.0134058"
                   cy="13.195962"
                   rx="0.43940297"
                   ry="1.4046568"
                   transform="matrix(0.86775975,0.49698394,-0.37451567,0.9272206,0,0)" />
                <ellipse
                   style="fill:#008000;fill-opacity:1;stroke-width:0.210011"
                   id="ellipse146"
                   cx="-11.518922"
                   cy="3.8223138"
                   rx="0.47449502"
                   ry="0.24970776"
                   transform="matrix(0.92518084,-0.37952659,0.33008178,0.94395234,0,0)" />
                <ellipse
                   style="fill:#008000;fill-opacity:1;stroke-width:0.229379"
                   id="ellipse147"
                   cx="-10.457104"
                   cy="10.548431"
                   rx="0.7306273"
                   ry="1.3470939" />
                <ellipse
                   style="fill:#008000;fill-opacity:1;stroke-width:0.264583"
                   id="ellipse148"
                   cx="-6.8785691"
                   cy="14.447186"
                   rx="0.83337176"
                   ry="1.3242619"
                   transform="rotate(16.47567)" />
                <path
                   style="fill:#000000;fill-opacity:1;stroke-width:0.264583"
                   id="path148"
                   d="m -12.453779,14.294635 c 0.217773,-0.09158 0.396827,-0.248535 0.563539,-0.412055 0.17999,-0.182083 0.345202,-0.377214 0.50183,-0.579463 0.121007,-0.148248 0.212605,-0.315964 0.29898,-0.485783 0.04803,-0.104552 0.09362,-0.210174 0.139531,-0.315659 0.04736,-0.113283 0.08448,-0.230773 0.117997,-0.348809 0.03842,-0.138035 0.07629,-0.276142 0.111078,-0.415133 0.02954,-0.123187 0.05727,-0.246776 0.08722,-0.369877 0.04705,-0.204859 0.102865,-0.407584 0.155636,-0.611019 0.05368,-0.213997 0.119097,-0.424802 0.17346,-0.638589 0.04723,-0.1739288 0.07532,-0.3518817 0.104952,-0.5293531 0.02426,-0.1072105 0.0439,-0.2154857 0.06859,-0.3225752 0.01787,-0.073648 0.03291,-0.1480921 0.0569,-0.2200368 0.04766,-0.1218316 0.085174,-0.2479074 0.1369127,-0.3680867 0.03347,-0.073077 0.067986,-0.1471441 0.1128736,-0.2140699 0.032287,-0.047484 0.069662,-0.091386 0.1044787,-0.1371055 0.035595,-0.044811 0.066238,-0.093307 0.1056981,-0.1349571 0.028351,-0.032853 0.061346,-0.063284 0.098215,-0.086327 0.043898,-0.027331 0.08741,-0.055114 0.1302356,-0.084108 0.03582,-0.013438 0.059842,-0.051232 0.09523,-0.063943 0.0042,-0.00127 0.0084,-0.00251 0.012605,-0.00378 0.088337,-0.030774 0.044816,-0.1557022 -0.043522,-0.1249277 v 0 c -0.00955,0.00353 -0.019098,0.00706 -0.028645,0.010586 -0.038812,0.021201 -0.071523,0.050456 -0.1098928,0.072561 -0.042408,0.028781 -0.085584,0.056175 -0.1290558,0.083317 -0.044655,0.030477 -0.087306,0.065011 -0.1221452,0.1066416 -0.041625,0.04547 -0.076672,0.095842 -0.1139716,0.1447911 -0.036719,0.048219 -0.076143,0.094511 -0.1099286,0.1448189 -0.047837,0.074339 -0.088319,0.1535764 -0.1238157,0.2344984 -0.05268,0.1239512 -0.09246,0.2531515 -0.140945,0.3787735 -0.0247,0.076003 -0.04191,0.153997 -0.06017,0.2317639 -0.02508,0.1097291 -0.04566,0.2205069 -0.07013,0.3303923 -0.029,0.1738458 -0.05638,0.3481899 -0.102684,0.5185563 -0.05421,0.213596 -0.119808,0.424128 -0.173294,0.637944 -0.05294,0.204083 -0.108915,0.407456 -0.156125,0.612964 -0.02988,0.12282 -0.05755,0.246124 -0.08701,0.369028 -0.03446,0.137677 -0.07197,0.274475 -0.110031,0.411206 -0.03174,0.112379 -0.06719,0.224176 -0.112017,0.332077 -0.04484,0.103068 -0.08948,0.206215 -0.136149,0.30848 -0.08257,0.162432 -0.169733,0.323076 -0.285654,0.464747 -0.152962,0.197552 -0.31424,0.38819 -0.489965,0.566111 -0.154323,0.152012 -0.319888,0.298803 -0.521687,0.384287 -0.08635,0.03598 -0.03547,0.158094 0.05088,0.122116 z" />
              </g>
              <g
                 id="g153"
                 inkscape:label="leaf"
                 transform="matrix(-0.42353709,-0.46041978,-0.37287244,0.48685182,-12.018931,1.1790478)">
                <ellipse
                   style="fill:#008000;fill-opacity:1;stroke-width:0.264583"
                   id="ellipse149"
                   cx="-0.74952173"
                   cy="17.853012"
                   rx="1.0046126"
                   ry="1.8265682"
                   transform="rotate(39.046188)" />
                <ellipse
                   style="fill:#008000;fill-opacity:1;stroke-width:0.265818"
                   id="ellipse150"
                   cx="-6.0134058"
                   cy="13.195962"
                   rx="0.43940297"
                   ry="1.4046568"
                   transform="matrix(0.86775975,0.49698394,-0.37451567,0.9272206,0,0)" />
                <ellipse
                   style="fill:#008000;fill-opacity:1;stroke-width:0.210011"
                   id="ellipse151"
                   cx="-11.518922"
                   cy="3.8223138"
                   rx="0.47449502"
                   ry="0.24970776"
                   transform="matrix(0.92518084,-0.37952659,0.33008178,0.94395234,0,0)" />
                <ellipse
                   style="fill:#008000;fill-opacity:1;stroke-width:0.229379"
                   id="ellipse152"
                   cx="-10.457104"
                   cy="10.548431"
                   rx="0.7306273"
                   ry="1.3470939" />
                <ellipse
                   style="fill:#008000;fill-opacity:1;stroke-width:0.264583"
                   id="ellipse153"
                   cx="-6.8785691"
                   cy="14.447186"
                   rx="0.83337176"
                   ry="1.3242619"
                   transform="rotate(16.47567)" />
                <path
                   style="fill:#000000;fill-opacity:1;stroke-width:0.264583"
                   id="path153"
                   d="m -12.453779,14.294635 c 0.217773,-0.09158 0.396827,-0.248535 0.563539,-0.412055 0.17999,-0.182083 0.345202,-0.377214 0.50183,-0.579463 0.121007,-0.148248 0.212605,-0.315964 0.29898,-0.485783 0.04803,-0.104552 0.09362,-0.210174 0.139531,-0.315659 0.04736,-0.113283 0.08448,-0.230773 0.117997,-0.348809 0.03842,-0.138035 0.07629,-0.276142 0.111078,-0.415133 0.02954,-0.123187 0.05727,-0.246776 0.08722,-0.369877 0.04705,-0.204859 0.102865,-0.407584 0.155636,-0.611019 0.05368,-0.213997 0.119097,-0.424802 0.17346,-0.638589 0.04723,-0.1739288 0.07532,-0.3518817 0.104952,-0.5293531 0.02426,-0.1072105 0.0439,-0.2154857 0.06859,-0.3225752 0.01787,-0.073648 0.03291,-0.1480921 0.0569,-0.2200368 0.04766,-0.1218316 0.085174,-0.2479074 0.1369127,-0.3680867 0.03347,-0.073077 0.067986,-0.1471441 0.1128736,-0.2140699 0.032287,-0.047484 0.069662,-0.091386 0.1044787,-0.1371055 0.035595,-0.044811 0.066238,-0.093307 0.1056981,-0.1349571 0.028351,-0.032853 0.061346,-0.063284 0.098215,-0.086327 0.043898,-0.027331 0.08741,-0.055114 0.1302356,-0.084108 0.03582,-0.013438 0.059842,-0.051232 0.09523,-0.063943 0.0042,-0.00127 0.0084,-0.00251 0.012605,-0.00378 0.088337,-0.030774 0.044816,-0.1557022 -0.043522,-0.1249277 v 0 c -0.00955,0.00353 -0.019098,0.00706 -0.028645,0.010586 -0.038812,0.021201 -0.071523,0.050456 -0.1098928,0.072561 -0.042408,0.028781 -0.085584,0.056175 -0.1290558,0.083317 -0.044655,0.030477 -0.087306,0.065011 -0.1221452,0.1066416 -0.041625,0.04547 -0.076672,0.095842 -0.1139716,0.1447911 -0.036719,0.048219 -0.076143,0.094511 -0.1099286,0.1448189 -0.047837,0.074339 -0.088319,0.1535764 -0.1238157,0.2344984 -0.05268,0.1239512 -0.09246,0.2531515 -0.140945,0.3787735 -0.0247,0.076003 -0.04191,0.153997 -0.06017,0.2317639 -0.02508,0.1097291 -0.04566,0.2205069 -0.07013,0.3303923 -0.029,0.1738458 -0.05638,0.3481899 -0.102684,0.5185563 -0.05421,0.213596 -0.119808,0.424128 -0.173294,0.637944 -0.05294,0.204083 -0.108915,0.407456 -0.156125,0.612964 -0.02988,0.12282 -0.05755,0.246124 -0.08701,0.369028 -0.03446,0.137677 -0.07197,0.274475 -0.110031,0.411206 -0.03174,0.112379 -0.06719,0.224176 -0.112017,0.332077 -0.04484,0.103068 -0.08948,0.206215 -0.136149,0.30848 -0.08257,0.162432 -0.169733,0.323076 -0.285654,0.464747 -0.152962,0.197552 -0.31424,0.38819 -0.489965,0.566111 -0.154323,0.152012 -0.319888,0.298803 -0.521687,0.384287 -0.08635,0.03598 -0.03547,0.158094 0.05088,0.122116 z" />
              </g>
            </g>
            <rect
               style="fill:#999999;fill-opacity:1;stroke-width:0.0887192"
               id="rect46"
               width="0.9835242"
               height="0.25936174"
               x="-1.0610201"
               y="12.635477"
               ry="0.12968087"
               inkscape:label="thumb"
               transform="matrix(0.64025957,-0.76815863,0.83925696,0.54373502,0,0)" />
            <rect
               style="fill:#999999;fill-opacity:1;stroke-width:0.0887192"
               id="rect45"
               width="0.9835242"
               height="0.25936174"
               x="11.434569"
               y="4.0017705"
               ry="0.12968087"
               inkscape:label="palm"
               transform="matrix(0.94834662,0.31723603,-0.20147005,0.97949467,0,0)" />
            <circle
               style="fill:#000000;fill-opacity:1;stroke-width:0.128511"
               id="path45"
               cy="7.6848941"
               cx="10.155038"
               r="0.27446043"
               inkscape:label="wrist" />
          </g>
          <g
             id="g156"
             inkscape:label="front"
             style="display:inline">
            <circle
               style="fill:#000000;fill-opacity:1;stroke-width:0.056886"
               id="circle47"
               cy="7.9516878"
               cx="10.906174"
               inkscape:label="joint"
               r="0.1214911" />
            <rect
               style="fill:#999999;fill-opacity:1;stroke-width:0.0799172"
               id="rect47"
               width="0.86964107"
               height="0.23800991"
               x="5.1959891"
               y="12.014203"
               ry="0.11900496"
               inkscape:label="fingers1_4"
               transform="matrix(0.88411402,-0.46727121,0.51760652,0.85561879,0,0)" />
            <g
               id="g155"
               inkscape:label="algae_front"
               transform="matrix(0.1743732,0,0,0.2470699,12.78418,4.8069989)"
               style="fill:#7e7e7e;fill-opacity:1">
              <g
                 id="g139"
                 inkscape:label="mass"
                 transform="rotate(-172.65162,-11.541035,12.615267)">
                <g
                   id="g128"
                   inkscape:label="leaf"
                   transform="rotate(34.841144,-12.48467,14.30726)">
                  <ellipse
                     style="fill:#008000;fill-opacity:1;stroke-width:0.264583"
                     id="ellipse124"
                     cx="-0.74952173"
                     cy="17.853012"
                     rx="1.0046126"
                     ry="1.8265682"
                     transform="rotate(39.046188)" />
                  <ellipse
                     style="fill:#008000;fill-opacity:1;stroke-width:0.265818"
                     id="ellipse125"
                     cx="-6.0134058"
                     cy="13.195962"
                     rx="0.43940297"
                     ry="1.4046568"
                     transform="matrix(0.86775975,0.49698394,-0.37451567,0.9272206,0,0)" />
                  <ellipse
                     style="fill:#008000;fill-opacity:1;stroke-width:0.210011"
                     id="ellipse126"
                     cx="-11.518922"
                     cy="3.8223138"
                     rx="0.47449502"
                     ry="0.24970776"
                     transform="matrix(0.92518084,-0.37952659,0.33008178,0.94395234,0,0)" />
                  <ellipse
                     style="fill:#008000;fill-opacity:1;stroke-width:0.229379"
                     id="ellipse127"
                     cx="-10.457104"
                     cy="10.548431"
                     rx="0.7306273"
                     ry="1.3470939" />
                  <ellipse
                     style="fill:#008000;fill-opacity:1;stroke-width:0.264583"
                     id="ellipse128"
                     cx="-6.8785691"
                     cy="14.447186"
                     rx="0.83337176"
                     ry="1.3242619"
                     transform="rotate(16.47567)" />
                  <path
                     style="fill:#000000;fill-opacity:1;stroke-width:0.264583"
                     id="path128"
                     d="m -12.453779,14.294635 c 0.217773,-0.09158 0.396827,-0.248535 0.563539,-0.412055 0.17999,-0.182083 0.345202,-0.377214 0.50183,-0.579463 0.121007,-0.148248 0.212605,-0.315964 0.29898,-0.485783 0.04803,-0.104552 0.09362,-0.210174 0.139531,-0.315659 0.04736,-0.113283 0.08448,-0.230773 0.117997,-0.348809 0.03842,-0.138035 0.07629,-0.276142 0.111078,-0.415133 0.02954,-0.123187 0.05727,-0.246776 0.08722,-0.369877 0.04705,-0.204859 0.102865,-0.407584 0.155636,-0.611019 0.05368,-0.213997 0.119097,-0.424802 0.17346,-0.638589 0.04723,-0.1739288 0.07532,-0.3518817 0.104952,-0.5293531 0.02426,-0.1072105 0.0439,-0.2154857 0.06859,-0.3225752 0.01787,-0.073648 0.03291,-0.1480921 0.0569,-0.2200368 0.04766,-0.1218316 0.085174,-0.2479074 0.1369127,-0.3680867 0.03347,-0.073077 0.067986,-0.1471441 0.1128736,-0.2140699 0.032287,-0.047484 0.069662,-0.091386 0.1044787,-0.1371055 0.035595,-0.044811 0.066238,-0.093307 0.1056981,-0.1349571 0.028351,-0.032853 0.061346,-0.063284 0.098215,-0.086327 0.043898,-0.027331 0.08741,-0.055114 0.1302356,-0.084108 0.03582,-0.013438 0.059842,-0.051232 0.09523,-0.063943 0.0042,-0.00127 0.0084,-0.00251 0.012605,-0.00378 0.088337,-0.030774 0.044816,-0.1557022 -0.043522,-0.1249277 v 0 c -0.00955,0.00353 -0.019098,0.00706 -0.028645,0.010586 -0.038812,0.021201 -0.071523,0.050456 -0.1098928,0.072561 -0.042408,0.028781 -0.085584,0.056175 -0.1290558,0.083317 -0.044655,0.030477 -0.087306,0.065011 -0.1221452,0.1066416 -0.041625,0.04547 -0.076672,0.095842 -0.1139716,0.1447911 -0.036719,0.048219 -0.076143,0.094511 -0.1099286,0.1448189 -0.047837,0.074339 -0.088319,0.1535764 -0.1238157,0.2344984 -0.05268,0.1239512 -0.09246,0.2531515 -0.140945,0.3787735 -0.0247,0.076003 -0.04191,0.153997 -0.06017,0.2317639 -0.02508,0.1097291 -0.04566,0.2205069 -0.07013,0.3303923 -0.029,0.1738458 -0.05638,0.3481899 -0.102684,0.5185563 -0.05421,0.213596 -0.119808,0.424128 -0.173294,0.637944 -0.05294,0.204083 -0.108915,0.407456 -0.156125,0.612964 -0.02988,0.12282 -0.05755,0.246124 -0.08701,0.369028 -0.03446,0.137677 -0.07197,0.274475 -0.110031,0.411206 -0.03174,0.112379 -0.06719,0.224176 -0.112017,0.332077 -0.04484,0.103068 -0.08948,0.206215 -0.136149,0.30848 -0.08257,0.162432 -0.169733,0.323076 -0.285654,0.464747 -0.152962,0.197552 -0.31424,0.38819 -0.489965,0.566111 -0.154323,0.152012 -0.319888,0.298803 -0.521687,0.384287 -0.08635,0.03598 -0.03547,0.158094 0.05088,0.122116 z" />
                </g>
                <g
                   id="g133"
                   inkscape:label="leaf"
                   transform="matrix(-0.28891373,0.55501052,0.73923466,0.38481258,-26.334635,15.970851)">
                  <ellipse
                     style="fill:#008000;fill-opacity:1;stroke-width:0.264583"
                     id="ellipse129"
                     cx="-0.74952173"
                     cy="17.853012"
                     rx="1.0046126"
                     ry="1.8265682"
                     transform="rotate(39.046188)" />
                  <ellipse
                     style="fill:#008000;fill-opacity:1;stroke-width:0.265818"
                     id="ellipse130"
                     cx="-6.0134058"
                     cy="13.195962"
                     rx="0.43940297"
                     ry="1.4046568"
                     transform="matrix(0.86775975,0.49698394,-0.37451567,0.9272206,0,0)" />
                  <ellipse
                     style="fill:#008000;fill-opacity:1;stroke-width:0.210011"
                     id="ellipse131"
                     cx="-11.518922"
                     cy="3.8223138"
                     rx="0.47449502"
                     ry="0.24970776"
                     transform="matrix(0.92518084,-0.37952659,0.33008178,0.94395234,0,0)" />
                  <ellipse
                     style="fill:#008000;fill-opacity:1;stroke-width:0.229379"
                     id="ellipse132"
                     cx="-10.457104"
                     cy="10.548431"
                     rx="0.7306273"
                     ry="1.3470939" />
                  <ellipse
                     style="fill:#008000;fill-opacity:1;stroke-width:0.264583"
                     id="ellipse133"
                     cx="-6.8785691"
                     cy="14.447186"
                     rx="0.83337176"
                     ry="1.3242619"
                     transform="rotate(16.47567)" />
                  <path
                     style="fill:#000000;fill-opacity:1;stroke-width:0.264583"
                     id="path133"
                     d="m -12.453779,14.294635 c 0.217773,-0.09158 0.396827,-0.248535 0.563539,-0.412055 0.17999,-0.182083 0.345202,-0.377214 0.50183,-0.579463 0.121007,-0.148248 0.212605,-0.315964 0.29898,-0.485783 0.04803,-0.104552 0.09362,-0.210174 0.139531,-0.315659 0.04736,-0.113283 0.08448,-0.230773 0.117997,-0.348809 0.03842,-0.138035 0.07629,-0.276142 0.111078,-0.415133 0.02954,-0.123187 0.05727,-0.246776 0.08722,-0.369877 0.04705,-0.204859 0.102865,-0.407584 0.155636,-0.611019 0.05368,-0.213997 0.119097,-0.424802 0.17346,-0.638589 0.04723,-0.1739288 0.07532,-0.3518817 0.104952,-0.5293531 0.02426,-0.1072105 0.0439,-0.2154857 0.06859,-0.3225752 0.01787,-0.073648 0.03291,-0.1480921 0.0569,-0.2200368 0.04766,-0.1218316 0.085174,-0.2479074 0.1369127,-0.3680867 0.03347,-0.073077 0.067986,-0.1471441 0.1128736,-0.2140699 0.032287,-0.047484 0.069662,-0.091386 0.1044787,-0.1371055 0.035595,-0.044811 0.066238,-0.093307 0.1056981,-0.1349571 0.028351,-0.032853 0.061346,-0.063284 0.098215,-0.086327 0.043898,-0.027331 0.08741,-0.055114 0.1302356,-0.084108 0.03582,-0.013438 0.059842,-0.051232 0.09523,-0.063943 0.0042,-0.00127 0.0084,-0.00251 0.012605,-0.00378 0.088337,-0.030774 0.044816,-0.1557022 -0.043522,-0.1249277 v 0 c -0.00955,0.00353 -0.019098,0.00706 -0.028645,0.010586 -0.038812,0.021201 -0.071523,0.050456 -0.1098928,0.072561 -0.042408,0.028781 -0.085584,0.056175 -0.1290558,0.083317 -0.044655,0.030477 -0.087306,0.065011 -0.1221452,0.1066416 -0.041625,0.04547 -0.076672,0.095842 -0.1139716,0.1447911 -0.036719,0.048219 -0.076143,0.094511 -0.1099286,0.1448189 -0.047837,0.074339 -0.088319,0.1535764 -0.1238157,0.2344984 -0.05268,0.1239512 -0.09246,0.2531515 -0.140945,0.3787735 -0.0247,0.076003 -0.04191,0.153997 -0.06017,0.2317639 -0.02508,0.1097291 -0.04566,0.2205069 -0.07013,0.3303923 -0.029,0.1738458 -0.05638,0.3481899 -0.102684,0.5185563 -0.05421,0.213596 -0.119808,0.424128 -0.173294,0.637944 -0.05294,0.204083 -0.108915,0.407456 -0.156125,0.612964 -0.02988,0.12282 -0.05755,0.246124 -0.08701,0.369028 -0.03446,0.137677 -0.07197,0.274475 -0.110031,0.411206 -0.03174,0.112379 -0.06719,0.224176 -0.112017,0.332077 -0.04484,0.103068 -0.08948,0.206215 -0.136149,0.30848 -0.08257,0.162432 -0.169733,0.323076 -0.285654,0.464747 -0.152962,0.197552 -0.31424,0.38819 -0.489965,0.566111 -0.154323,0.152012 -0.319888,0.298803 -0.521687,0.384287 -0.08635,0.03598 -0.03547,0.158094 0.05088,0.122116 z" />
                </g>
                <g
                   id="g138"
                   inkscape:label="leaf"
                   transform="matrix(-0.47973083,0.40170406,0.38771892,0.46302922,-23.7797,13.00362)">
                  <ellipse
                     style="fill:#008000;fill-opacity:1;stroke-width:0.264583"
                     id="ellipse134"
                     cx="-0.74952173"
                     cy="17.853012"
                     rx="1.0046126"
                     ry="1.8265682"
                     transform="rotate(39.046188)" />
                  <ellipse
                     style="fill:#008000;fill-opacity:1;stroke-width:0.265818"
                     id="ellipse135"
                     cx="-6.0134058"
                     cy="13.195962"
                     rx="0.43940297"
                     ry="1.4046568"
                     transform="matrix(0.86775975,0.49698394,-0.37451567,0.9272206,0,0)" />
                  <ellipse
                     style="fill:#008000;fill-opacity:1;stroke-width:0.210011"
                     id="ellipse136"
                     cx="-11.518922"
                     cy="3.8223138"
                     rx="0.47449502"
                     ry="0.24970776"
                     transform="matrix(0.92518084,-0.37952659,0.33008178,0.94395234,0,0)" />
                  <ellipse
                     style="fill:#008000;fill-opacity:1;stroke-width:0.229379"
                     id="ellipse137"
                     cx="-10.457104"
                     cy="10.548431"
                     rx="0.7306273"
                     ry="1.3470939" />
                  <ellipse
                     style="fill:#008000;fill-opacity:1;stroke-width:0.264583"
                     id="ellipse138"
                     cx="-6.8785691"
                     cy="14.447186"
                     rx="0.83337176"
                     ry="1.3242619"
                     transform="rotate(16.47567)" />
                  <path
                     style="fill:#000000;fill-opacity:1;stroke-width:0.264583"
                     id="path138"
                     d="m -12.453779,14.294635 c 0.217773,-0.09158 0.396827,-0.248535 0.563539,-0.412055 0.17999,-0.182083 0.345202,-0.377214 0.50183,-0.579463 0.121007,-0.148248 0.212605,-0.315964 0.29898,-0.485783 0.04803,-0.104552 0.09362,-0.210174 0.139531,-0.315659 0.04736,-0.113283 0.08448,-0.230773 0.117997,-0.348809 0.03842,-0.138035 0.07629,-0.276142 0.111078,-0.415133 0.02954,-0.123187 0.05727,-0.246776 0.08722,-0.369877 0.04705,-0.204859 0.102865,-0.407584 0.155636,-0.611019 0.05368,-0.213997 0.119097,-0.424802 0.17346,-0.638589 0.04723,-0.1739288 0.07532,-0.3518817 0.104952,-0.5293531 0.02426,-0.1072105 0.0439,-0.2154857 0.06859,-0.3225752 0.01787,-0.073648 0.03291,-0.1480921 0.0569,-0.2200368 0.04766,-0.1218316 0.085174,-0.2479074 0.1369127,-0.3680867 0.03347,-0.073077 0.067986,-0.1471441 0.1128736,-0.2140699 0.032287,-0.047484 0.069662,-0.091386 0.1044787,-0.1371055 0.035595,-0.044811 0.066238,-0.093307 0.1056981,-0.1349571 0.028351,-0.032853 0.061346,-0.063284 0.098215,-0.086327 0.043898,-0.027331 0.08741,-0.055114 0.1302356,-0.084108 0.03582,-0.013438 0.059842,-0.051232 0.09523,-0.063943 0.0042,-0.00127 0.0084,-0.00251 0.012605,-0.00378 0.088337,-0.030774 0.044816,-0.1557022 -0.043522,-0.1249277 v 0 c -0.00955,0.00353 -0.019098,0.00706 -0.028645,0.010586 -0.038812,0.021201 -0.071523,0.050456 -0.1098928,0.072561 -0.042408,0.028781 -0.085584,0.056175 -0.1290558,0.083317 -0.044655,0.030477 -0.087306,0.065011 -0.1221452,0.1066416 -0.041625,0.04547 -0.076672,0.095842 -0.1139716,0.1447911 -0.036719,0.048219 -0.076143,0.094511 -0.1099286,0.1448189 -0.047837,0.074339 -0.088319,0.1535764 -0.1238157,0.2344984 -0.05268,0.1239512 -0.09246,0.2531515 -0.140945,0.3787735 -0.0247,0.076003 -0.04191,0.153997 -0.06017,0.2317639 -0.02508,0.1097291 -0.04566,0.2205069 -0.07013,0.3303923 -0.029,0.1738458 -0.05638,0.3481899 -0.102684,0.5185563 -0.05421,0.213596 -0.119808,0.424128 -0.173294,0.637944 -0.05294,0.204083 -0.108915,0.407456 -0.156125,0.612964 -0.02988,0.12282 -0.05755,0.246124 -0.08701,0.369028 -0.03446,0.137677 -0.07197,0.274475 -0.110031,0.411206 -0.03174,0.112379 -0.06719,0.224176 -0.112017,0.332077 -0.04484,0.103068 -0.08948,0.206215 -0.136149,0.30848 -0.08257,0.162432 -0.169733,0.323076 -0.285654,0.464747 -0.152962,0.197552 -0.31424,0.38819 -0.489965,0.566111 -0.154323,0.152012 -0.319888,0.298803 -0.521687,0.384287 -0.08635,0.03598 -0.03547,0.158094 0.05088,0.122116 z" />
                </g>
              </g>
            </g>
          </g>
        </g>
      </g>
      <g
         id="g120"
         inkscape:label="leaf_shoulder_back"
         transform="rotate(-5.4671382,21.773837,-0.8782271)"
         style="fill:#7e7e7e;fill-opacity:1">
        <ellipse
           style="fill:#008000;fill-opacity:1;stroke-width:0.117672"
           id="ellipse116"
           cx="-10.755593"
           cy="8.8340311"
           rx="0.18072762"
           ry="0.6692515"
           transform="matrix(-0.74077372,0.06389205,0.27982288,-0.63568794,-7.1934951,12.218899)" />
        <ellipse
           style="fill:#008000;fill-opacity:1;stroke-width:0.0905883"
           id="ellipse117"
           cx="-0.75421154"
           cy="-15.94099"
           rx="0.17636877"
           ry="0.12499847"
           transform="matrix(0.13325001,0.66863881,-0.65223948,0.33626862,-7.1934951,12.218899)" />
        <ellipse
           style="fill:#008000;fill-opacity:1;stroke-width:0.102165"
           id="ellipse118"
           cx="-7.435111"
           cy="12.933047"
           rx="0.28359655"
           ry="0.68846256"
           transform="matrix(-0.73774186,-0.06994501,0.41247404,-0.573176,-7.1934951,12.218899)" />
        <path
           style="fill:#000000;fill-opacity:1;stroke-width:0.258209"
           id="path124"
           d="m 3.2119649,5.9651071 c -0.00815,0.027697 -0.023245,0.051958 -0.036405,0.077165 -0.010167,0.019806 -0.023412,0.037406 -0.032594,0.057756 -0.01226,0.018986 -0.017826,0.040873 -0.02239,0.062933 -0.00253,0.023517 -0.00962,0.045956 -0.015158,0.068816 -0.00542,0.023081 -0.00831,0.046663 -0.010975,0.070212 -0.00419,0.022923 -0.00251,0.04451 0.00463,0.066325 0.00726,0.022028 0.037053,0.010977 0.029792,-0.01106 v 0 c -0.00569,-0.017128 -0.00668,-0.033521 -0.00313,-0.051664 0.00251,-0.022113 0.0052,-0.044261 0.010226,-0.065956 0.00564,-0.023233 0.012798,-0.046112 0.015421,-0.070012 0.00405,-0.019751 0.00903,-0.038898 0.020132,-0.055825 0.00863,-0.019808 0.022355,-0.036447 0.031737,-0.055887 0.013676,-0.026445 0.029438,-0.051886 0.038023,-0.080858 0.00823,-0.021805 -0.021051,-0.033728 -0.029284,-0.011931 z"
           inkscape:label="path124" />
      </g>
      <rect
         style="fill:#4d4d4d;fill-opacity:1;stroke-width:0.393107"
         id="rect30"
         width="3.3581049"
         height="4.4559464"
         x="3.6856091"
         y="6.8158784"
         ry="0.7910918"
         rx="0"
         inkscape:label="torso"
         transform="rotate(-2.0383789)" />
      <g
         id="g119"
         inkscape:label="leaf_shoulder_front"
         transform="matrix(-0.67060114,-0.20708894,0.22592155,-0.64956547,-5.995619,13.918825)"
         style="display:inline">
        <ellipse
           style="fill:#008000;fill-opacity:1;stroke-width:0.117404"
           id="ellipse115"
           cx="20.306257"
           cy="-9.310853"
           rx="0.42402548"
           ry="0.85208935"
           transform="matrix(-0.93023467,0.36696521,-0.73804724,-0.67474905,0,0)" />
        <ellipse
           style="fill:#008000;fill-opacity:1;stroke-width:0.113198"
           id="ellipse119"
           cx="18.47827"
           cy="-0.89643198"
           rx="0.29191899"
           ry="0.69200689"
           transform="matrix(-0.65777966,0.7532104,-0.89678963,-0.44245718,0,0)" />
        <path
           style="fill:#000000;fill-opacity:1;stroke-width:0.37177"
           id="path123"
           d="m -12.553818,13.461382 c 0.07685,0.02398 0.151413,0.05631 0.226112,0.08782 0.06508,0.02769 0.130291,0.05625 0.192539,0.09143 0.04575,0.02283 0.08657,0.05588 0.126094,0.08949 0.05908,0.04608 0.115433,0.09565 0.170125,0.147575 0.05391,0.04813 0.10254,0.101924 0.151861,0.155145 0.03744,0.04483 0.06965,0.09403 0.106238,0.139678 0.02867,0.03818 0.06159,0.07237 0.09344,0.107511 0.03115,0.03006 0.06386,0.05845 0.09914,0.08263 0.03095,0.01898 0.0605,0.04054 0.09185,0.05868 0.04861,0.02925 0.101225,0.04743 0.152256,0.06992 0.05537,0.02563 0.110704,0.05115 0.165296,0.07885 0.05171,0.03272 0.106513,0.045 0.164098,0.05001 0.01679,-3.55e-4 0.0335,0.0026 0.05025,0.0048 0.06376,0.0081 0.06885,-0.08701 0.0051,-0.09515 v 0 c -0.01789,-0.0023 -0.03581,-0.0053 -0.05373,-0.0052 -0.04655,-0.004 -0.08938,-0.01276 -0.131101,-0.04048 -0.05621,-0.02851 -0.11317,-0.05479 -0.17018,-0.08116 -0.04816,-0.0209 -0.0976,-0.03825 -0.143476,-0.06553 -0.02937,-0.01614 -0.05618,-0.03758 -0.0852,-0.05454 -0.02897,-0.01946 -0.0552,-0.0432 -0.0812,-0.067 -0.0305,-0.0336 -0.06202,-0.06627 -0.08943,-0.102823 -0.03824,-0.04742 -0.07115,-0.09922 -0.110996,-0.145188 -0.05082,-0.0548 -0.100994,-0.110134 -0.156446,-0.159785 -0.05608,-0.05323 -0.113841,-0.104101 -0.174376,-0.151388 -0.04444,-0.03751 -0.09023,-0.07443 -0.141471,-0.100191 -0.06551,-0.03657 -0.133604,-0.06733 -0.202061,-0.0961 -0.07711,-0.03252 -0.154115,-0.06578 -0.233444,-0.09055 -0.06206,-0.02016 -0.08334,0.07136 -0.02128,0.09151 z" />
      </g>
      <rect
         style="fill:#b3b3b3;fill-opacity:1;stroke-width:0.294123"
         id="rect31"
         width="1.3238683"
         height="1.3238684"
         x="5.1857076"
         y="5.4789553"
         ry="0.542786"
         inkscape:label="neck"
         transform="rotate(2.2500757)" />
      <g
         id="head"
         transform="matrix(0.82983773,0.1591152,-0.21220546,0.97854457,2.2841376,-0.58401374)"
         style="stroke-width:1.22761">
        <rect
           style="fill:#808080;fill-opacity:1;stroke-width:0.243234"
           id="rect25"
           width="6.1672888"
           height="3.4549735"
           x="2.550868"
           y="2.550868"
           ry="0.77494729"
           inkscape:label="cranium" />
        <g
           id="g31"
           style="fill:#7e7e7e;fill-opacity:1"
           inkscape:label="face"
           transform="matrix(1.034493,-0.08550197,0,0.99152798,-0.18933939,0.63092862)">
          <rect
             style="fill:#000000;fill-opacity:1;stroke-width:0.264583"
             id="rect29"
             width="2.4217103"
             height="0.48434207"
             x="5.4892101"
             y="5.1340256"
             ry="0.24217103"
             rx="0"
             inkscape:label="mouth" />
          <rect
             style="fill:#000000;fill-opacity:1;stroke-width:0.264583"
             id="rect27"
             width="0.77494729"
             height="1.2592893"
             x="5.5860786"
             y="3.0674996"
             ry="0.38747364"
             inkscape:label="right_eye" />
          <rect
             style="fill:#000000;fill-opacity:1;stroke-width:0.240303"
             id="rect28"
             width="0.70383346"
             height="1.1437293"
             x="7.3656416"
             y="3.2147455"
             ry="0.35191673"
             inkscape:label="left_eye" />
        </g>
        <rect
           style="fill:#cccccc;fill-opacity:1;stroke-width:0.264583"
           id="rect26"
           width="1.905079"
           height="3.1643682"
           x="2.6800261"
           y="2.6477365"
           ry="0.77494729"
           inkscape:label="side3d" />
      </g>
      <g
         id="g115"
         inkscape:label="algae"
         transform="matrix(0.22136681,-0.08638674,0.01777295,0.70398556,6.5177073,-5.5884999)">
        <g
           id="g99"
           inkscape:label="mass"
           transform="rotate(-172.65162,-11.546945,12.395264)">
          <g
             id="g88"
             inkscape:label="leaf"
             transform="rotate(34.841144,-12.48467,14.30726)">
            <ellipse
               style="fill:#008000;fill-opacity:1;stroke-width:0.264583"
               id="ellipse84"
               cx="-0.74952173"
               cy="17.853012"
               rx="1.0046126"
               ry="1.8265682"
               transform="rotate(39.046188)" />
            <ellipse
               style="fill:#008000;fill-opacity:1;stroke-width:0.265818"
               id="ellipse85"
               cx="-6.0134058"
               cy="13.195962"
               rx="0.43940297"
               ry="1.4046568"
               transform="matrix(0.86775975,0.49698394,-0.37451567,0.9272206,0,0)" />
            <ellipse
               style="fill:#008000;fill-opacity:1;stroke-width:0.210011"
               id="ellipse86"
               cx="-11.518922"
               cy="3.8223138"
               rx="0.47449502"
               ry="0.24970776"
               transform="matrix(0.92518084,-0.37952659,0.33008178,0.94395234,0,0)" />
            <ellipse
               style="fill:#008000;fill-opacity:1;stroke-width:0.229379"
               id="ellipse87"
               cx="-10.457104"
               cy="10.548431"
               rx="0.7306273"
               ry="1.3470939" />
            <ellipse
               style="fill:#008000;fill-opacity:1;stroke-width:0.264583"
               id="ellipse88"
               cx="-6.8785691"
               cy="14.447186"
               rx="0.83337176"
               ry="1.3242619"
               transform="rotate(16.47567)" />
            <path
               style="fill:#000000;fill-opacity:1;stroke-width:0.264583"
               id="path88"
               d="m -12.453779,14.294635 c 0.217773,-0.09158 0.396827,-0.248535 0.563539,-0.412055 0.17999,-0.182083 0.345202,-0.377214 0.50183,-0.579463 0.121007,-0.148248 0.212605,-0.315964 0.29898,-0.485783 0.04803,-0.104552 0.09362,-0.210174 0.139531,-0.315659 0.04736,-0.113283 0.08448,-0.230773 0.117997,-0.348809 0.03842,-0.138035 0.07629,-0.276142 0.111078,-0.415133 0.02954,-0.123187 0.05727,-0.246776 0.08722,-0.369877 0.04705,-0.204859 0.102865,-0.407584 0.155636,-0.611019 0.05368,-0.213997 0.119097,-0.424802 0.17346,-0.638589 0.04723,-0.1739288 0.07532,-0.3518817 0.104952,-0.5293531 0.02426,-0.1072105 0.0439,-0.2154857 0.06859,-0.3225752 0.01787,-0.073648 0.03291,-0.1480921 0.0569,-0.2200368 0.04766,-0.1218316 0.085174,-0.2479074 0.1369127,-0.3680867 0.03347,-0.073077 0.067986,-0.1471441 0.1128736,-0.2140699 0.032287,-0.047484 0.069662,-0.091386 0.1044787,-0.1371055 0.035595,-0.044811 0.066238,-0.093307 0.1056981,-0.1349571 0.028351,-0.032853 0.061346,-0.063284 0.098215,-0.086327 0.043898,-0.027331 0.08741,-0.055114 0.1302356,-0.084108 0.03582,-0.013438 0.059842,-0.051232 0.09523,-0.063943 0.0042,-0.00127 0.0084,-0.00251 0.012605,-0.00378 0.088337,-0.030774 0.044816,-0.1557022 -0.043522,-0.1249277 v 0 c -0.00955,0.00353 -0.019098,0.00706 -0.028645,0.010586 -0.038812,0.021201 -0.071523,0.050456 -0.1098928,0.072561 -0.042408,0.028781 -0.085584,0.056175 -0.1290558,0.083317 -0.044655,0.030477 -0.087306,0.065011 -0.1221452,0.1066416 -0.041625,0.04547 -0.076672,0.095842 -0.1139716,0.1447911 -0.036719,0.048219 -0.076143,0.094511 -0.1099286,0.1448189 -0.047837,0.074339 -0.088319,0.1535764 -0.1238157,0.2344984 -0.05268,0.1239512 -0.09246,0.2531515 -0.140945,0.3787735 -0.0247,0.076003 -0.04191,0.153997 -0.06017,0.2317639 -0.02508,0.1097291 -0.04566,0.2205069 -0.07013,0.3303923 -0.029,0.1738458 -0.05638,0.3481899 -0.102684,0.5185563 -0.05421,0.213596 -0.119808,0.424128 -0.173294,0.637944 -0.05294,0.204083 -0.108915,0.407456 -0.156125,0.612964 -0.02988,0.12282 -0.05755,0.246124 -0.08701,0.369028 -0.03446,0.137677 -0.07197,0.274475 -0.110031,0.411206 -0.03174,0.112379 -0.06719,0.224176 -0.112017,0.332077 -0.04484,0.103068 -0.08948,0.206215 -0.136149,0.30848 -0.08257,0.162432 -0.169733,0.323076 -0.285654,0.464747 -0.152962,0.197552 -0.31424,0.38819 -0.489965,0.566111 -0.154323,0.152012 -0.319888,0.298803 -0.521687,0.384287 -0.08635,0.03598 -0.03547,0.158094 0.05088,0.122116 z" />
          </g>
          <g
             id="g93"
             inkscape:label="leaf"
             transform="matrix(-0.28891373,0.55501052,0.73923466,0.38481258,-26.334635,15.970851)">
            <ellipse
               style="fill:#008000;fill-opacity:1;stroke-width:0.264583"
               id="ellipse89"
               cx="-0.74952173"
               cy="17.853012"
               rx="1.0046126"
               ry="1.8265682"
               transform="rotate(39.046188)" />
            <ellipse
               style="fill:#008000;fill-opacity:1;stroke-width:0.265818"
               id="ellipse90"
               cx="-6.0134058"
               cy="13.195962"
               rx="0.43940297"
               ry="1.4046568"
               transform="matrix(0.86775975,0.49698394,-0.37451567,0.9272206,0,0)" />
            <ellipse
               style="fill:#008000;fill-opacity:1;stroke-width:0.210011"
               id="ellipse91"
               cx="-11.518922"
               cy="3.8223138"
               rx="0.47449502"
               ry="0.24970776"
               transform="matrix(0.92518084,-0.37952659,0.33008178,0.94395234,0,0)" />
            <ellipse
               style="fill:#008000;fill-opacity:1;stroke-width:0.229379"
               id="ellipse92"
               cx="-10.457104"
               cy="10.548431"
               rx="0.7306273"
               ry="1.3470939" />
            <ellipse
               style="fill:#008000;fill-opacity:1;stroke-width:0.264583"
               id="ellipse93"
               cx="-6.8785691"
               cy="14.447186"
               rx="0.83337176"
               ry="1.3242619"
               transform="rotate(16.47567)" />
            <path
               style="fill:#000000;fill-opacity:1;stroke-width:0.264583"
               id="path93"
               d="m -12.453779,14.294635 c 0.217773,-0.09158 0.396827,-0.248535 0.563539,-0.412055 0.17999,-0.182083 0.345202,-0.377214 0.50183,-0.579463 0.121007,-0.148248 0.212605,-0.315964 0.29898,-0.485783 0.04803,-0.104552 0.09362,-0.210174 0.139531,-0.315659 0.04736,-0.113283 0.08448,-0.230773 0.117997,-0.348809 0.03842,-0.138035 0.07629,-0.276142 0.111078,-0.415133 0.02954,-0.123187 0.05727,-0.246776 0.08722,-0.369877 0.04705,-0.204859 0.102865,-0.407584 0.155636,-0.611019 0.05368,-0.213997 0.119097,-0.424802 0.17346,-0.638589 0.04723,-0.1739288 0.07532,-0.3518817 0.104952,-0.5293531 0.02426,-0.1072105 0.0439,-0.2154857 0.06859,-0.3225752 0.01787,-0.073648 0.03291,-0.1480921 0.0569,-0.2200368 0.04766,-0.1218316 0.085174,-0.2479074 0.1369127,-0.3680867 0.03347,-0.073077 0.067986,-0.1471441 0.1128736,-0.2140699 0.032287,-0.047484 0.069662,-0.091386 0.1044787,-0.1371055 0.035595,-0.044811 0.066238,-0.093307 0.1056981,-0.1349571 0.028351,-0.032853 0.061346,-0.063284 0.098215,-0.086327 0.043898,-0.027331 0.08741,-0.055114 0.1302356,-0.084108 0.03582,-0.013438 0.059842,-0.051232 0.09523,-0.063943 0.0042,-0.00127 0.0084,-0.00251 0.012605,-0.00378 0.088337,-0.030774 0.044816,-0.1557022 -0.043522,-0.1249277 v 0 c -0.00955,0.00353 -0.019098,0.00706 -0.028645,0.010586 -0.038812,0.021201 -0.071523,0.050456 -0.1098928,0.072561 -0.042408,0.028781 -0.085584,0.056175 -0.1290558,0.083317 -0.044655,0.030477 -0.087306,0.065011 -0.1221452,0.1066416 -0.041625,0.04547 -0.076672,0.095842 -0.1139716,0.1447911 -0.036719,0.048219 -0.076143,0.094511 -0.1099286,0.1448189 -0.047837,0.074339 -0.088319,0.1535764 -0.1238157,0.2344984 -0.05268,0.1239512 -0.09246,0.2531515 -0.140945,0.3787735 -0.0247,0.076003 -0.04191,0.153997 -0.06017,0.2317639 -0.02508,0.1097291 -0.04566,0.2205069 -0.07013,0.3303923 -0.029,0.1738458 -0.05638,0.3481899 -0.102684,0.5185563 -0.05421,0.213596 -0.119808,0.424128 -0.173294,0.637944 -0.05294,0.204083 -0.108915,0.407456 -0.156125,0.612964 -0.02988,0.12282 -0.05755,0.246124 -0.08701,0.369028 -0.03446,0.137677 -0.07197,0.274475 -0.110031,0.411206 -0.03174,0.112379 -0.06719,0.224176 -0.112017,0.332077 -0.04484,0.103068 -0.08948,0.206215 -0.136149,0.30848 -0.08257,0.162432 -0.169733,0.323076 -0.285654,0.464747 -0.152962,0.197552 -0.31424,0.38819 -0.489965,0.566111 -0.154323,0.152012 -0.319888,0.298803 -0.521687,0.384287 -0.08635,0.03598 -0.03547,0.158094 0.05088,0.122116 z" />
          </g>
          <g
             id="g98"
             inkscape:label="leaf"
             transform="matrix(-0.47973083,0.40170406,0.38771892,0.46302922,-23.7797,13.00362)">
            <ellipse
               style="fill:#008000;fill-opacity:1;stroke-width:0.264583"
               id="ellipse94"
               cx="-0.74952173"
               cy="17.853012"
               rx="1.0046126"
               ry="1.8265682"
               transform="rotate(39.046188)" />
            <ellipse
               style="fill:#008000;fill-opacity:1;stroke-width:0.265818"
               id="ellipse95"
               cx="-6.0134058"
               cy="13.195962"
               rx="0.43940297"
               ry="1.4046568"
               transform="matrix(0.86775975,0.49698394,-0.37451567,0.9272206,0,0)" />
            <ellipse
               style="fill:#008000;fill-opacity:1;stroke-width:0.210011"
               id="ellipse96"
               cx="-11.518922"
               cy="3.8223138"
               rx="0.47449502"
               ry="0.24970776"
               transform="matrix(0.92518084,-0.37952659,0.33008178,0.94395234,0,0)" />
            <ellipse
               style="fill:#008000;fill-opacity:1;stroke-width:0.229379"
               id="ellipse97"
               cx="-10.457104"
               cy="10.548431"
               rx="0.7306273"
               ry="1.3470939" />
            <ellipse
               style="fill:#008000;fill-opacity:1;stroke-width:0.264583"
               id="ellipse98"
               cx="-6.8785691"
               cy="14.447186"
               rx="0.83337176"
               ry="1.3242619"
               transform="rotate(16.47567)" />
            <path
               style="fill:#000000;fill-opacity:1;stroke-width:0.264583"
               id="path98"
               d="m -12.453779,14.294635 c 0.217773,-0.09158 0.396827,-0.248535 0.563539,-0.412055 0.17999,-0.182083 0.345202,-0.377214 0.50183,-0.579463 0.121007,-0.148248 0.212605,-0.315964 0.29898,-0.485783 0.04803,-0.104552 0.09362,-0.210174 0.139531,-0.315659 0.04736,-0.113283 0.08448,-0.230773 0.117997,-0.348809 0.03842,-0.138035 0.07629,-0.276142 0.111078,-0.415133 0.02954,-0.123187 0.05727,-0.246776 0.08722,-0.369877 0.04705,-0.204859 0.102865,-0.407584 0.155636,-0.611019 0.05368,-0.213997 0.119097,-0.424802 0.17346,-0.638589 0.04723,-0.1739288 0.07532,-0.3518817 0.104952,-0.5293531 0.02426,-0.1072105 0.0439,-0.2154857 0.06859,-0.3225752 0.01787,-0.073648 0.03291,-0.1480921 0.0569,-0.2200368 0.04766,-0.1218316 0.085174,-0.2479074 0.1369127,-0.3680867 0.03347,-0.073077 0.067986,-0.1471441 0.1128736,-0.2140699 0.032287,-0.047484 0.069662,-0.091386 0.1044787,-0.1371055 0.035595,-0.044811 0.066238,-0.093307 0.1056981,-0.1349571 0.028351,-0.032853 0.061346,-0.063284 0.098215,-0.086327 0.043898,-0.027331 0.08741,-0.055114 0.1302356,-0.084108 0.03582,-0.013438 0.059842,-0.051232 0.09523,-0.063943 0.0042,-0.00127 0.0084,-0.00251 0.012605,-0.00378 0.088337,-0.030774 0.044816,-0.1557022 -0.043522,-0.1249277 v 0 c -0.00955,0.00353 -0.019098,0.00706 -0.028645,0.010586 -0.038812,0.021201 -0.071523,0.050456 -0.1098928,0.072561 -0.042408,0.028781 -0.085584,0.056175 -0.1290558,0.083317 -0.044655,0.030477 -0.087306,0.065011 -0.1221452,0.1066416 -0.041625,0.04547 -0.076672,0.095842 -0.1139716,0.1447911 -0.036719,0.048219 -0.076143,0.094511 -0.1099286,0.1448189 -0.047837,0.074339 -0.088319,0.1535764 -0.1238157,0.2344984 -0.05268,0.1239512 -0.09246,0.2531515 -0.140945,0.3787735 -0.0247,0.076003 -0.04191,0.153997 -0.06017,0.2317639 -0.02508,0.1097291 -0.04566,0.2205069 -0.07013,0.3303923 -0.029,0.1738458 -0.05638,0.3481899 -0.102684,0.5185563 -0.05421,0.213596 -0.119808,0.424128 -0.173294,0.637944 -0.05294,0.204083 -0.108915,0.407456 -0.156125,0.612964 -0.02988,0.12282 -0.05755,0.246124 -0.08701,0.369028 -0.03446,0.137677 -0.07197,0.274475 -0.110031,0.411206 -0.03174,0.112379 -0.06719,0.224176 -0.112017,0.332077 -0.04484,0.103068 -0.08948,0.206215 -0.136149,0.30848 -0.08257,0.162432 -0.169733,0.323076 -0.285654,0.464747 -0.152962,0.197552 -0.31424,0.38819 -0.489965,0.566111 -0.154323,0.152012 -0.319888,0.298803 -0.521687,0.384287 -0.08635,0.03598 -0.03547,0.158094 0.05088,0.122116 z" />
          </g>
        </g>
        <g
           id="g114"
           inkscape:label="mass"
           transform="matrix(-0.74026699,0.0695621,-0.06373161,-0.67821992,-18.690029,21.016553)">
          <g
             id="g103"
             inkscape:label="leaf"
             transform="rotate(23.538983,-12.401524,15.181772)">
            <ellipse
               style="fill:#008000;fill-opacity:1;stroke-width:0.264583"
               id="ellipse99"
               cx="-0.74952173"
               cy="17.853012"
               rx="1.0046126"
               ry="1.8265682"
               transform="rotate(39.046188)" />
            <ellipse
               style="fill:#008000;fill-opacity:1;stroke-width:0.265818"
               id="ellipse100"
               cx="-6.0134058"
               cy="13.195962"
               rx="0.43940297"
               ry="1.4046568"
               transform="matrix(0.86775975,0.49698394,-0.37451567,0.9272206,0,0)" />
            <ellipse
               style="fill:#008000;fill-opacity:1;stroke-width:0.210011"
               id="ellipse101"
               cx="-11.518922"
               cy="3.8223138"
               rx="0.47449502"
               ry="0.24970776"
               transform="matrix(0.92518084,-0.37952659,0.33008178,0.94395234,0,0)" />
            <ellipse
               style="fill:#008000;fill-opacity:1;stroke-width:0.229379"
               id="ellipse102"
               cx="-10.457104"
               cy="10.548431"
               rx="0.7306273"
               ry="1.3470939" />
            <ellipse
               style="fill:#008000;fill-opacity:1;stroke-width:0.264583"
               id="ellipse103"
               cx="-6.8785691"
               cy="14.447186"
               rx="0.83337176"
               ry="1.3242619"
               transform="rotate(16.47567)" />
            <path
               style="fill:#000000;fill-opacity:1;stroke-width:0.264583"
               id="path103"
               d="m -12.453779,14.294635 c 0.217773,-0.09158 0.396827,-0.248535 0.563539,-0.412055 0.17999,-0.182083 0.345202,-0.377214 0.50183,-0.579463 0.121007,-0.148248 0.212605,-0.315964 0.29898,-0.485783 0.04803,-0.104552 0.09362,-0.210174 0.139531,-0.315659 0.04736,-0.113283 0.08448,-0.230773 0.117997,-0.348809 0.03842,-0.138035 0.07629,-0.276142 0.111078,-0.415133 0.02954,-0.123187 0.05727,-0.246776 0.08722,-0.369877 0.04705,-0.204859 0.102865,-0.407584 0.155636,-0.611019 0.05368,-0.213997 0.119097,-0.424802 0.17346,-0.638589 0.04723,-0.1739288 0.07532,-0.3518817 0.104952,-0.5293531 0.02426,-0.1072105 0.0439,-0.2154857 0.06859,-0.3225752 0.01787,-0.073648 0.03291,-0.1480921 0.0569,-0.2200368 0.04766,-0.1218316 0.085174,-0.2479074 0.1369127,-0.3680867 0.03347,-0.073077 0.067986,-0.1471441 0.1128736,-0.2140699 0.032287,-0.047484 0.069662,-0.091386 0.1044787,-0.1371055 0.035595,-0.044811 0.066238,-0.093307 0.1056981,-0.1349571 0.028351,-0.032853 0.061346,-0.063284 0.098215,-0.086327 0.043898,-0.027331 0.08741,-0.055114 0.1302356,-0.084108 0.03582,-0.013438 0.059842,-0.051232 0.09523,-0.063943 0.0042,-0.00127 0.0084,-0.00251 0.012605,-0.00378 0.088337,-0.030774 0.044816,-0.1557022 -0.043522,-0.1249277 v 0 c -0.00955,0.00353 -0.019098,0.00706 -0.028645,0.010586 -0.038812,0.021201 -0.071523,0.050456 -0.1098928,0.072561 -0.042408,0.028781 -0.085584,0.056175 -0.1290558,0.083317 -0.044655,0.030477 -0.087306,0.065011 -0.1221452,0.1066416 -0.041625,0.04547 -0.076672,0.095842 -0.1139716,0.1447911 -0.036719,0.048219 -0.076143,0.094511 -0.1099286,0.1448189 -0.047837,0.074339 -0.088319,0.1535764 -0.1238157,0.2344984 -0.05268,0.1239512 -0.09246,0.2531515 -0.140945,0.3787735 -0.0247,0.076003 -0.04191,0.153997 -0.06017,0.2317639 -0.02508,0.1097291 -0.04566,0.2205069 -0.07013,0.3303923 -0.029,0.1738458 -0.05638,0.3481899 -0.102684,0.5185563 -0.05421,0.213596 -0.119808,0.424128 -0.173294,0.637944 -0.05294,0.204083 -0.108915,0.407456 -0.156125,0.612964 -0.02988,0.12282 -0.05755,0.246124 -0.08701,0.369028 -0.03446,0.137677 -0.07197,0.274475 -0.110031,0.411206 -0.03174,0.112379 -0.06719,0.224176 -0.112017,0.332077 -0.04484,0.103068 -0.08948,0.206215 -0.136149,0.30848 -0.08257,0.162432 -0.169733,0.323076 -0.285654,0.464747 -0.152962,0.197552 -0.31424,0.38819 -0.489965,0.566111 -0.154323,0.152012 -0.319888,0.298803 -0.521687,0.384287 -0.08635,0.03598 -0.03547,0.158094 0.05088,0.122116 z" />
          </g>
          <g
             id="g108"
             inkscape:label="leaf"
             transform="matrix(-0.60950506,0.06353672,0.13423277,0.84155486,-21.641775,2.8220249)">
            <ellipse
               style="fill:#008000;fill-opacity:1;stroke-width:0.264583"
               id="ellipse104"
               cx="-0.74952173"
               cy="17.853012"
               rx="1.0046126"
               ry="1.8265682"
               transform="rotate(39.046188)" />
            <ellipse
               style="fill:#008000;fill-opacity:1;stroke-width:0.265818"
               id="ellipse105"
               cx="-6.0134058"
               cy="13.195962"
               rx="0.43940297"
               ry="1.4046568"
               transform="matrix(0.86775975,0.49698394,-0.37451567,0.9272206,0,0)" />
            <ellipse
               style="fill:#008000;fill-opacity:1;stroke-width:0.210011"
               id="ellipse106"
               cx="-11.518922"
               cy="3.8223138"
               rx="0.47449502"
               ry="0.24970776"
               transform="matrix(0.92518084,-0.37952659,0.33008178,0.94395234,0,0)" />
            <ellipse
               style="fill:#008000;fill-opacity:1;stroke-width:0.229379"
               id="ellipse107"
               cx="-10.457104"
               cy="10.548431"
               rx="0.7306273"
               ry="1.3470939" />
            <ellipse
               style="fill:#008000;fill-opacity:1;stroke-width:0.264583"
               id="ellipse108"
               cx="-6.8785691"
               cy="14.447186"
               rx="0.83337176"
               ry="1.3242619"
               transform="rotate(16.47567)" />
            <path
               style="fill:#000000;fill-opacity:1;stroke-width:0.264583"
               id="path108"
               d="m -12.453779,14.294635 c 0.217773,-0.09158 0.396827,-0.248535 0.563539,-0.412055 0.17999,-0.182083 0.345202,-0.377214 0.50183,-0.579463 0.121007,-0.148248 0.212605,-0.315964 0.29898,-0.485783 0.04803,-0.104552 0.09362,-0.210174 0.139531,-0.315659 0.04736,-0.113283 0.08448,-0.230773 0.117997,-0.348809 0.03842,-0.138035 0.07629,-0.276142 0.111078,-0.415133 0.02954,-0.123187 0.05727,-0.246776 0.08722,-0.369877 0.04705,-0.204859 0.102865,-0.407584 0.155636,-0.611019 0.05368,-0.213997 0.119097,-0.424802 0.17346,-0.638589 0.04723,-0.1739288 0.07532,-0.3518817 0.104952,-0.5293531 0.02426,-0.1072105 0.0439,-0.2154857 0.06859,-0.3225752 0.01787,-0.073648 0.03291,-0.1480921 0.0569,-0.2200368 0.04766,-0.1218316 0.085174,-0.2479074 0.1369127,-0.3680867 0.03347,-0.073077 0.067986,-0.1471441 0.1128736,-0.2140699 0.032287,-0.047484 0.069662,-0.091386 0.1044787,-0.1371055 0.035595,-0.044811 0.066238,-0.093307 0.1056981,-0.1349571 0.028351,-0.032853 0.061346,-0.063284 0.098215,-0.086327 0.043898,-0.027331 0.08741,-0.055114 0.1302356,-0.084108 0.03582,-0.013438 0.059842,-0.051232 0.09523,-0.063943 0.0042,-0.00127 0.0084,-0.00251 0.012605,-0.00378 0.088337,-0.030774 0.044816,-0.1557022 -0.043522,-0.1249277 v 0 c -0.00955,0.00353 -0.019098,0.00706 -0.028645,0.010586 -0.038812,0.021201 -0.071523,0.050456 -0.1098928,0.072561 -0.042408,0.028781 -0.085584,0.056175 -0.1290558,0.083317 -0.044655,0.030477 -0.087306,0.065011 -0.1221452,0.1066416 -0.041625,0.04547 -0.076672,0.095842 -0.1139716,0.1447911 -0.036719,0.048219 -0.076143,0.094511 -0.1099286,0.1448189 -0.047837,0.074339 -0.088319,0.1535764 -0.1238157,0.2344984 -0.05268,0.1239512 -0.09246,0.2531515 -0.140945,0.3787735 -0.0247,0.076003 -0.04191,0.153997 -0.06017,0.2317639 -0.02508,0.1097291 -0.04566,0.2205069 -0.07013,0.3303923 -0.029,0.1738458 -0.05638,0.3481899 -0.102684,0.5185563 -0.05421,0.213596 -0.119808,0.424128 -0.173294,0.637944 -0.05294,0.204083 -0.108915,0.407456 -0.156125,0.612964 -0.02988,0.12282 -0.05755,0.246124 -0.08701,0.369028 -0.03446,0.137677 -0.07197,0.274475 -0.110031,0.411206 -0.03174,0.112379 -0.06719,0.224176 -0.112017,0.332077 -0.04484,0.103068 -0.08948,0.206215 -0.136149,0.30848 -0.08257,0.162432 -0.169733,0.323076 -0.285654,0.464747 -0.152962,0.197552 -0.31424,0.38819 -0.489965,0.566111 -0.154323,0.152012 -0.319888,0.298803 -0.521687,0.384287 -0.08635,0.03598 -0.03547,0.158094 0.05088,0.122116 z" />
          </g>
          <g
             id="g113"
             inkscape:label="leaf"
             transform="matrix(-0.42353709,-0.46041978,-0.37287244,0.48685182,-12.018931,1.1790478)">
            <ellipse
               style="fill:#008000;fill-opacity:1;stroke-width:0.264583"
               id="ellipse109"
               cx="-0.74952173"
               cy="17.853012"
               rx="1.0046126"
               ry="1.8265682"
               transform="rotate(39.046188)" />
            <ellipse
               style="fill:#008000;fill-opacity:1;stroke-width:0.265818"
               id="ellipse110"
               cx="-6.0134058"
               cy="13.195962"
               rx="0.43940297"
               ry="1.4046568"
               transform="matrix(0.86775975,0.49698394,-0.37451567,0.9272206,0,0)" />
            <ellipse
               style="fill:#008000;fill-opacity:1;stroke-width:0.210011"
               id="ellipse111"
               cx="-11.518922"
               cy="3.8223138"
               rx="0.47449502"
               ry="0.24970776"
               transform="matrix(0.92518084,-0.37952659,0.33008178,0.94395234,0,0)" />
            <ellipse
               style="fill:#008000;fill-opacity:1;stroke-width:0.229379"
               id="ellipse112"
               cx="-10.457104"
               cy="10.548431"
               rx="0.7306273"
               ry="1.3470939" />
            <ellipse
               style="fill:#008000;fill-opacity:1;stroke-width:0.264583"
               id="ellipse113"
               cx="-6.8785691"
               cy="14.447186"
               rx="0.83337176"
               ry="1.3242619"
               transform="rotate(16.47567)" />
            <path
               style="fill:#000000;fill-opacity:1;stroke-width:0.264583"
               id="path113"
               d="m -12.453779,14.294635 c 0.217773,-0.09158 0.396827,-0.248535 0.563539,-0.412055 0.17999,-0.182083 0.345202,-0.377214 0.50183,-0.579463 0.121007,-0.148248 0.212605,-0.315964 0.29898,-0.485783 0.04803,-0.104552 0.09362,-0.210174 0.139531,-0.315659 0.04736,-0.113283 0.08448,-0.230773 0.117997,-0.348809 0.03842,-0.138035 0.07629,-0.276142 0.111078,-0.415133 0.02954,-0.123187 0.05727,-0.246776 0.08722,-0.369877 0.04705,-0.204859 0.102865,-0.407584 0.155636,-0.611019 0.05368,-0.213997 0.119097,-0.424802 0.17346,-0.638589 0.04723,-0.1739288 0.07532,-0.3518817 0.104952,-0.5293531 0.02426,-0.1072105 0.0439,-0.2154857 0.06859,-0.3225752 0.01787,-0.073648 0.03291,-0.1480921 0.0569,-0.2200368 0.04766,-0.1218316 0.085174,-0.2479074 0.1369127,-0.3680867 0.03347,-0.073077 0.067986,-0.1471441 0.1128736,-0.2140699 0.032287,-0.047484 0.069662,-0.091386 0.1044787,-0.1371055 0.035595,-0.044811 0.066238,-0.093307 0.1056981,-0.1349571 0.028351,-0.032853 0.061346,-0.063284 0.098215,-0.086327 0.043898,-0.027331 0.08741,-0.055114 0.1302356,-0.084108 0.03582,-0.013438 0.059842,-0.051232 0.09523,-0.063943 0.0042,-0.00127 0.0084,-0.00251 0.012605,-0.00378 0.088337,-0.030774 0.044816,-0.1557022 -0.043522,-0.1249277 v 0 c -0.00955,0.00353 -0.019098,0.00706 -0.028645,0.010586 -0.038812,0.021201 -0.071523,0.050456 -0.1098928,0.072561 -0.042408,0.028781 -0.085584,0.056175 -0.1290558,0.083317 -0.044655,0.030477 -0.087306,0.065011 -0.1221452,0.1066416 -0.041625,0.04547 -0.076672,0.095842 -0.1139716,0.1447911 -0.036719,0.048219 -0.076143,0.094511 -0.1099286,0.1448189 -0.047837,0.074339 -0.088319,0.1535764 -0.1238157,0.2344984 -0.05268,0.1239512 -0.09246,0.2531515 -0.140945,0.3787735 -0.0247,0.076003 -0.04191,0.153997 -0.06017,0.2317639 -0.02508,0.1097291 -0.04566,0.2205069 -0.07013,0.3303923 -0.029,0.1738458 -0.05638,0.3481899 -0.102684,0.5185563 -0.05421,0.213596 -0.119808,0.424128 -0.173294,0.637944 -0.05294,0.204083 -0.108915,0.407456 -0.156125,0.612964 -0.02988,0.12282 -0.05755,0.246124 -0.08701,0.369028 -0.03446,0.137677 -0.07197,0.274475 -0.110031,0.411206 -0.03174,0.112379 -0.06719,0.224176 -0.112017,0.332077 -0.04484,0.103068 -0.08948,0.206215 -0.136149,0.30848 -0.08257,0.162432 -0.169733,0.323076 -0.285654,0.464747 -0.152962,0.197552 -0.31424,0.38819 -0.489965,0.566111 -0.154323,0.152012 -0.319888,0.298803 -0.521687,0.384287 -0.08635,0.03598 -0.03547,0.158094 0.05088,0.122116 z" />
          </g>
        </g>
      </g>
    </g>
  </g>
  <metadata
     id="metadata1">
    <rdf:RDF>
      <cc:Work
         rdf:about="" />
    </rdf:RDF>
  </metadata>
</svg>
