<?xml version="1.0" encoding="UTF-8" standalone="no"?>
<!-- Created with Inkscape (http://www.inkscape.org/) -->

<svg
   width="48"
   height="48"
   viewBox="0 0 4.7153463 4.7153463"
   version="1.1"
   id="svg1"
   sodipodi:docname="chatbox-icon.svg"
   inkscape:export-filename="chatbox-icon.svg"
   inkscape:export-xdpi="96"
   inkscape:export-ydpi="96"
   inkscape:version="1.3.2 (091e20e, 2023-11-25, custom)"
   xmlns:inkscape="http://www.inkscape.org/namespaces/inkscape"
   xmlns:sodipodi="http://sodipodi.sourceforge.net/DTD/sodipodi-0.dtd"
   xmlns="http://www.w3.org/2000/svg"
   xmlns:svg="http://www.w3.org/2000/svg">
  <sodipodi:namedview
     id="namedview1"
     pagecolor="#505050"
     bordercolor="#eeeeee"
     borderopacity="1"
     inkscape:showpageshadow="0"
     inkscape:pageopacity="0"
     inkscape:pagecheckerboard="true"
     inkscape:deskcolor="#505050"
     inkscape:document-units="px"
     showgrid="false"
     inkscape:zoom="16.9375"
     inkscape:cx="24"
     inkscape:cy="24"
     inkscape:window-width="1920"
     inkscape:window-height="1009"
     inkscape:window-x="1912"
     inkscape:window-y="-8"
     inkscape:window-maximized="1"
     inkscape:current-layer="g4" />
  <defs
     id="defs1" />
  <g
     inkscape:label="Layer 1"
     inkscape:groupmode="layer"
     id="layer1">
    <g
       id="g4"
       transform="matrix(-1.2642202,0,0,1.4811106,5.0033632,0.17214554)"
       style="fill:#006565;fill-opacity:1">
      <path
         id="ellipse3"
         style="fill:#006565;fill-opacity:1;stroke-width:0.142027"
         d="M 1.03037 0.59509484 A 1.4796854 1.1358582 0 0 0 0.61467793 1.3844021 A 1.4796854 1.1358582 0 0 0 2.0942623 2.5202376 A 1.4796854 1.1358582 0 0 0 2.9300477 2.3194455 A 1.4796854 1.1358582 0 0 1 1.8726813 2.6646784 A 1.4796854 1.1358582 0 0 1 0.39294516 1.5288428 A 1.4796854 1.1358582 0 0 1 1.03037 0.59509484 z " />
      <path
         sodipodi:type="star"
         style="fill:#006565;fill-opacity:1;stroke-width:0.0982364"
         id="path4"
         inkscape:flatsided="false"
         sodipodi:sides="3"
         sodipodi:cx="0.69379443"
         sodipodi:cy="2.8795538"
         sodipodi:r1="0.44478416"
         sodipodi:r2="0.22239207"
         sodipodi:arg1="0.11065722"
         sodipodi:arg2="1.1578548"
         inkscape:rounded="0"
         inkscape:randomized="0"
         d="m 1.1358582,2.928672 -0.35281665,0.1545805 -0.3528166,0.1545806 0.0425376,-0.3828384 0.0425376,-0.3828384 0.310279,0.2282578 z"
         inkscape:transform-center-x="-0.12652134"
         inkscape:transform-center-y="-0.024559132"
         transform="matrix(1.417652,0,0,1,-0.0200502,-0.40522507)" />
    </g>
    <g
       id="g3"
       transform="matrix(1.2642202,0,0,1.4811106,-0.33713552,-0.33026507)"
       style="display:inline">
      <path
         d="M 1.8726817,0.39294553 A 1.4796854,1.1358582 0 0 0 0.3929455,1.5287811 1.4796854,1.1358582 0 0 0 1.8726817,2.6646166 1.4796854,1.1358582 0 0 0 3.352266,1.5287811 1.4796854,1.1358582 0 0 0 1.8726817,0.39294553 Z"
         style="fill:#000080;stroke-width:0.142027"
         id="path5" />
      <path
         sodipodi:type="star"
         style="fill:#000080;stroke-width:0.0982364"
         id="path3"
         inkscape:flatsided="false"
         sodipodi:sides="3"
         sodipodi:cx="0.69379443"
         sodipodi:cy="2.8795538"
         sodipodi:r1="0.44478416"
         sodipodi:r2="0.22239207"
         sodipodi:arg1="0.11065722"
         sodipodi:arg2="1.1578548"
         inkscape:rounded="0"
         inkscape:randomized="0"
         d="m 1.1358582,2.928672 -0.35281665,0.1545805 -0.3528166,0.1545806 0.0425376,-0.3828384 0.0425376,-0.3828384 0.310279,0.2282578 z"
         inkscape:transform-center-x="-0.12652134"
         inkscape:transform-center-y="-0.024559132"
         transform="matrix(1.417652,0,0,1,-0.0200502,-0.40522507)" />
    </g>
  </g>
</svg>
